<svg id="driver" xmlns="http://www.w3.org/2000/svg" width="24" height="24" viewBox="0 0 24 24" fill="none"
    stroke="currentColor" stroke-width="2" stroke-linecap="round" stroke-linejoin="round"
    class="feather feather-download">
    <g transform="matrix(0.1,0,0,-0.1,0,32)" fill="none" stroke="currentColor">
        <path fill="currentColor"
            d="M 78.3 291.7 c -22 -22 -25 -42 -10 -69 c 7 -14 4 -21 -14 -31 c -29 -15 -51 -53 -43 -74 c 9 -23 30 -20 22 3 c -12 39 56 80 110 67 c 37 -9 67 -43 60 -67 c -8 -23 13 -26 22 -3 c 8 21 -14 59 -43 74 c -18 10 -21 17 -14 31 c 6 10 10 25 10 33 c 0 22 -36 56 -60 56 c -11 0 -29 -9 -40 -20 z m 70 -15 c 26 -32 -13 -81 -47 -59 c -23 14 -28 41 -13 59 c 16 19 44 19 60 0 z" />
        <path fill="currentColor"
            d="M 67.3 122.7 c -13 -11 -21 -23 -17 -27 c 5 -4 16 0 26 9 c 24 22 60 22 84 0 c 10 -9 21 -13 26 -9 c 12 12 -38 46 -68 46 c -15 0 -38 -9 -51 -19 z" />
    </g>

</svg>